<svg version="1.1" id="Layer_1" xmlns="http://www.w3.org/2000/svg" xmlns:xlink="http://www.w3.org/1999/xlink" x="0px" y="0px"
	 width="100%" viewBox="0 0 352 352" enable-background="new 0 0 352 352" xml:space="preserve">
<path fill="#000000" opacity="1.000000" stroke="none" 
	d="
M234.054169,262.265320 
	C227.960571,262.959351 222.209457,265.915070 216.659790,262.347107 
	C210.297287,258.256531 203.195450,254.056976 202.063782,245.969345 
	C200.301559,233.375214 196.767136,221.277069 193.625748,209.053802 
	C192.179565,203.426682 190.357452,197.896179 188.278641,190.880249 
	C187.501907,197.207214 187.124435,202.163116 186.216125,207.019745 
	C185.609863,210.261292 185.646393,214.869720 180.961273,214.843521 
	C176.641800,214.819351 176.465332,210.400208 175.844955,207.314011 
	C174.901230,202.619125 174.560989,197.802917 173.607056,192.992966 
	C168.050980,209.498062 163.073288,226.126587 160.443466,243.331589 
	C159.728989,248.005768 158.841309,251.957153 154.518967,254.711334 
	C151.112473,256.881958 149.490250,260.889008 145.200684,262.654572 
	C138.448593,265.433624 132.384933,262.833496 126.187202,261.757507 
	C115.669830,259.931549 109.173447,264.098755 107.344215,274.740662 
	C106.528687,279.485168 105.851227,284.258301 104.856506,288.964630 
	C104.456993,290.854858 103.725365,292.917450 101.240807,293.233856 
	C98.913811,293.530273 97.463280,292.104553 96.288223,290.445068 
	C92.861656,285.605835 93.726448,280.658997 96.309837,275.851440 
	C99.850105,269.263123 103.586624,262.870941 104.952866,255.267426 
	C106.077545,249.008286 104.464935,244.183167 99.961678,240.028549 
	C98.739502,238.901001 97.437767,237.832825 96.369911,236.570435 
	C94.127441,233.919464 93.162064,231.148972 95.883972,228.107330 
	C97.670464,226.111008 96.939789,224.570633 95.820023,222.069214 
	C93.987633,217.975922 91.671074,214.814026 88.297852,212.003098 
	C86.643738,210.624725 87.436134,208.228378 88.166885,206.339584 
	C89.136650,203.833023 90.170433,201.305389 89.683769,198.592422 
	C88.261826,190.665634 92.262428,184.433197 95.917267,178.093460 
	C97.564377,175.236343 100.578362,173.919617 103.637383,171.791794 
	C100.721039,171.295044 98.237686,170.758194 95.725899,170.465073 
	C87.389259,169.492188 82.276672,164.938004 79.421143,157.065338 
	C76.606224,149.304626 75.412811,141.268127 74.791405,133.192337 
	C74.025108,123.233490 71.293915,113.946770 67.214905,104.950966 
	C64.684555,99.370567 61.388618,94.172668 60.438057,87.873161 
	C58.776821,76.863945 64.081230,69.716484 75.182556,68.675148 
	C85.249313,67.730858 94.751617,70.205414 103.842529,74.036766 
	C131.394470,85.648491 152.624924,104.352013 166.128403,131.247955 
	C169.070007,137.107010 170.987717,143.480133 173.431778,149.757202 
	C176.217117,141.754974 173.456833,135.111481 169.672256,128.605423 
	C164.735123,120.118042 160.130249,111.431702 155.016479,103.054344 
	C149.784058,94.482651 146.960312,84.801590 142.071533,76.087555 
	C141.377014,74.849617 141.038010,73.243446 142.219513,71.621445 
	C145.201401,71.197342 145.487808,73.855003 146.203323,75.619469 
	C152.343567,90.761116 159.340179,105.490074 167.454712,119.667854 
	C170.346573,124.720535 173.600098,129.574005 176.837570,134.418839 
	C179.917374,139.027786 181.816833,139.047501 185.012054,134.541214 
	C197.517685,116.904373 206.677322,97.504128 214.964020,77.638115 
	C215.928192,75.326721 216.157455,72.318657 219.497375,71.347496 
	C221.750000,73.810150 219.957138,76.015694 219.070969,78.141449 
	C210.723450,98.165565 198.983780,116.421234 188.767578,135.462769 
	C185.988068,140.643372 189.618210,144.947845 187.914505,149.539230 
	C190.278183,147.308212 190.676636,144.291016 191.747482,141.580688 
	C206.934906,103.141052 234.824524,79.220589 274.753143,69.197151 
	C279.607361,67.978584 284.718048,67.957863 289.624512,69.077705 
	C300.436005,71.545326 304.521484,79.959785 300.653168,92.040359 
	C299.343506,96.130302 297.247711,99.978157 295.401123,103.884628 
	C290.886292,113.435715 288.001129,123.324158 287.152802,133.972961 
	C286.591827,141.014587 285.559875,148.085953 283.376862,154.984604 
	C280.511688,164.038895 275.288300,169.688599 265.522919,170.547958 
	C263.238678,170.748978 260.983612,171.281998 258.466064,171.704010 
	C268.518402,178.415222 273.174377,187.610107 272.262451,199.524887 
	C272.064758,202.107498 273.189148,204.391617 273.965454,206.758881 
	C274.598846,208.690262 275.212402,210.885773 273.459167,212.387253 
	C270.443512,214.969849 268.061829,217.523697 266.529144,221.570526 
	C265.501740,224.283295 264.216309,225.983414 266.254028,228.420578 
	C268.658447,231.296295 267.995331,233.953888 265.659729,236.427063 
	C264.175507,237.998734 262.473297,239.367538 261.019989,240.964828 
	C257.474487,244.861664 256.038940,249.243958 256.962036,254.679031 
	C258.192169,261.922028 261.367889,268.205444 264.951508,274.442871 
	C267.488617,278.858826 269.156769,283.587463 266.789276,288.690002 
	C265.629395,291.189911 264.080872,293.474579 260.870544,293.198425 
	C257.874908,292.940796 257.405792,290.268951 256.916992,288.088348 
	C256.010406,284.043976 255.485886,279.914642 254.780029,275.824493 
	C252.610092,263.251038 246.631836,259.246887 234.054169,262.265320 
M145.417313,115.089149 
	C137.887878,109.535126 134.860962,99.142487 124.985466,95.855217 
	C125.435501,102.293747 125.435471,102.288643 118.981407,102.331894 
	C115.234322,102.357010 111.368576,101.936928 108.108086,104.971245 
	C111.379845,105.661263 114.890633,104.485283 117.396584,107.471123 
	C114.826828,109.252785 111.902931,107.547943 109.289040,109.064224 
	C110.793510,110.803322 113.511398,110.546623 114.442398,112.570747 
	C114.433136,114.369766 112.262825,113.975433 111.791374,115.431030 
	C113.725853,116.087372 116.387566,115.114479 117.640312,117.743912 
	C114.819786,119.037811 111.772385,117.404221 109.245491,119.124023 
	C111.428268,122.221977 114.274963,124.087776 117.834480,125.303856 
	C115.428879,128.280258 111.184700,126.431564 109.131592,129.726715 
	C112.972115,131.610794 117.750549,130.398193 121.646408,133.975952 
	C115.192383,135.996841 108.739845,136.273743 103.485764,140.272369 
	C112.008301,139.954559 120.691238,137.986023 129.009598,143.310852 
	C124.494553,145.891724 120.081062,144.682617 116.129211,146.034302 
	C112.136627,147.399918 107.899567,148.229202 105.168121,152.191437 
	C110.079948,154.510834 114.670586,150.213181 119.803932,152.181900 
	C115.710464,156.623505 110.269653,157.551498 105.682175,159.982178 
	C108.661781,164.232544 113.452782,166.464615 120.790901,165.826004 
	C135.861328,164.514450 150.885437,162.671326 166.039948,162.497223 
	C166.378876,162.493332 166.711411,161.930573 167.020508,161.652298 
	C166.279495,158.780472 162.998642,158.063370 162.120544,155.494858 
	C163.101196,154.521133 164.034332,155.108826 165.001389,155.243744 
	C167.033173,155.527176 169.350754,157.702530 171.032608,155.652542 
	C172.858627,153.426849 170.589661,151.252411 169.480820,149.362946 
	C162.513916,137.491501 156.354248,125.041550 145.417313,115.089149 
M236.750107,98.679565 
	C236.861572,97.915527 236.973022,97.151489 237.084488,96.387451 
	C236.627899,96.094818 236.171326,95.802185 235.714737,95.509552 
	C217.047928,112.694603 200.251541,131.366684 189.853302,155.215469 
	C193.180145,158.329849 196.465744,154.052124 199.956497,155.264343 
	C198.951889,158.052933 194.919037,158.772064 195.150360,162.671921 
	C210.336700,162.471359 225.166763,164.259293 240.022461,165.782547 
	C242.623917,166.049286 245.407272,165.861816 247.933289,165.211136 
	C251.106415,164.393784 254.734543,163.831314 256.375244,159.875381 
	C251.523590,157.525421 246.023651,156.813995 242.338791,151.978714 
	C247.544601,150.484818 252.138748,154.527695 257.159729,152.038635 
	C250.535721,144.888153 241.188644,146.000122 231.851059,143.726700 
	C241.088562,137.927750 249.855301,140.064896 259.633514,140.667862 
	C252.980911,136.483124 246.648422,135.833267 240.012390,133.848038 
	C244.280396,130.626343 248.789627,131.458191 252.519409,129.848297 
	C250.809402,126.277649 246.247330,128.511749 243.997711,124.723686 
	C248.041351,124.390915 250.626511,122.387840 252.124222,119.053413 
	C250.043640,117.476326 247.188232,119.216881 245.102020,117.507919 
	C245.970657,114.871284 248.549805,116.185120 250.117310,115.239670 
	C249.484146,113.948006 246.939484,114.396103 247.534790,111.975945 
	C249.143433,111.173859 250.856033,110.319946 253.028152,109.236908 
	C250.167664,107.563515 247.058456,109.162003 244.540894,107.470284 
	C246.355164,104.636108 249.992645,106.393707 251.637131,103.784775 
	C248.156143,101.456856 244.392365,102.605728 240.835144,102.347946 
	C238.811127,102.201279 236.628983,102.426079 236.750107,98.679565 
M145.698090,166.239227 
	C142.040009,166.206390 138.508301,166.907043 134.401184,168.041214 
	C137.409927,171.458740 130.915787,173.438614 134.154877,176.847687 
	C132.078156,177.371414 130.481857,177.788757 128.878128,178.175217 
	C125.931732,178.885193 122.733871,182.941833 122.870537,183.195709 
	C125.803215,188.642868 119.697601,188.737823 118.207954,191.388336 
	C117.470284,192.700882 115.155281,192.807693 115.101593,195.000305 
	C115.540657,195.200119 115.950500,195.496384 116.398148,195.573654 
	C121.852722,196.514999 121.629730,196.420166 119.189583,201.054306 
	C117.636551,204.003677 116.012062,206.941681 113.463844,210.835815 
	C119.022484,206.771881 122.831665,202.425247 129.233246,201.927612 
	C128.911560,206.398529 126.674026,209.653137 125.565063,215.187195 
	C128.427322,209.590729 129.928848,213.153244 131.465347,214.248398 
	C136.395218,217.762314 130.340897,221.228683 131.237579,224.828201 
	C134.010498,224.011261 135.912735,221.217667 139.316727,221.113205 
	C139.955429,224.761475 139.080246,228.113083 138.659683,231.888474 
	C141.994888,231.359299 143.453293,234.653641 146.204971,235.233002 
	C149.675522,235.963730 149.380035,230.834015 152.276184,230.735641 
	C154.102753,232.257553 152.290665,235.055969 154.580414,236.013336 
	C156.221283,235.934326 156.607025,234.751648 157.065506,233.701263 
	C159.393570,228.367706 161.554550,222.976227 162.747650,217.247513 
	C164.966934,206.591690 165.343185,195.480789 171.689758,185.908691 
	C175.943405,179.493256 175.319489,176.235199 169.337662,171.513550 
	C167.392532,169.978195 166.378464,168.791595 167.712204,166.188477 
	C160.278259,166.188477 153.466187,166.188477 145.698090,166.239227 
M208.389267,235.158340 
	C209.127884,233.792694 207.979660,231.716751 209.958939,230.785492 
	C215.085693,235.693405 215.085693,235.693405 222.885422,230.757767 
	C223.212997,227.561707 221.718353,224.325424 222.960419,221.082062 
	C226.199280,221.484253 228.097809,223.868744 230.610138,224.800812 
	C231.817032,221.253708 225.650055,217.886169 230.660889,214.245255 
	C232.468903,212.931534 233.756973,210.561096 236.289429,214.311813 
	C235.383316,209.579391 232.854462,206.255646 233.026688,201.744476 
	C238.107208,202.605606 241.768890,205.458878 245.980881,207.965958 
	C244.759094,205.344620 244.029099,202.719055 242.489563,200.715591 
	C239.974457,197.442596 240.546585,196.022217 244.545090,195.663025 
	C245.455688,195.581207 246.635635,195.918503 246.908890,194.462250 
	C245.211075,190.427765 237.674515,189.938278 239.430634,182.860245 
	C236.507538,180.330078 233.080505,176.979218 227.426788,177.080933 
	C231.108276,173.022934 224.502884,170.837234 227.513351,167.650085 
	C216.266647,165.412140 205.458939,166.222137 194.256104,166.184372 
	C194.731812,167.588272 195.076370,168.605148 195.416382,169.608612 
	C187.266678,174.532425 185.926147,178.634842 190.638168,186.502411 
	C194.316879,192.644669 196.284485,199.225800 197.323410,206.181564 
	C198.652313,215.078766 200.264343,223.907471 204.251480,232.070648 
	C204.997360,233.597763 205.002991,236.334534 208.389267,235.158340 
z"/>
</svg>